<svg width="50px" height="50px" xmlns="http://www.w3.org/2000/svg" xmlns:xlink="http://www.w3.org/1999/xlink" version="1.1" x="0px" y="0px" viewBox="0 0 168.292 351.41125" enable-background="new 0 0 168.292 281.129" xml:space="preserve">
    <path d="M85.345,14.565c-41.833,0-75.746,33.912-75.746,75.745c0,63.254,75.477,175.766,75.746,175.756  c0.322-0.012,75.746-113.502,75.746-175.756C161.091,48.477,127.18,14.565,85.345,14.565z M85.738,153.538  c-34.991,0-63.356-28.364-63.356-63.354S50.747,26.83,85.738,26.83c34.99,0,63.354,28.364,63.354,63.354  C149.091,125.173,120.728,153.538,85.738,153.538z"/>
    <path d="M132.773,94.437c0.167,0.089,0.332,0.177,0.463,0.247C133.125,94.624,132.968,94.542,132.773,94.437z"/>
    <path d="M132.067,94.061c0.132,0.07,0.25,0.133,0.36,0.191C132.287,94.176,132.156,94.108,132.067,94.061z"/>
    <path d="M131.94,93.993c0.048,0.025,0.083,0.045,0.127,0.068C131.99,94.019,131.94,93.993,131.94,93.993z"/>
    <path d="M133.236,94.684C133.66,94.911,133.537,94.844,133.236,94.684L133.236,94.684z"/>
    <path d="M134.554,91.945C134.552,91.94,134.552,91.94,134.554,91.945L134.554,91.945z"/>
    <path d="M136.059,95.499c0,0.001,0,0.002,0,0.003C136.059,95.5,136.059,95.5,136.059,95.499z"/>
    <path d="M136.059,95.501C136.068,95.521,136.068,95.521,136.059,95.501L136.059,95.501z"/>
    <path d="M118.263,86.155c0.29-17.346,0.225-26.272-4.846-31.431c-3.854-3.921-9.83-4.45-15.17-4.45  c-1.863,0-3.375,1.511-3.375,3.375s1.512,3.375,3.375,3.375c5.51,0,8.703,0.75,10.355,2.431c3.111,3.166,3.153,11.853,2.918,26.114  c-2.619-0.015-5.142-0.046-7.601-0.077c-12.707-0.158-22.742-0.285-31.037,2.168c-1.09,0.321-2.133,0.691-3.139,1.101l-0.637-12.104  h7.545c1.864,0,3.375-1.511,3.375-3.375c0-1.864-1.511-3.375-3.375-3.375H57.366c-1.864,0-3.375,1.511-3.375,3.375  c0,1.865,1.511,3.375,3.375,3.375h4.982l0.53,10.088c-1.975-0.601-4.067-0.927-6.236-0.927c-11.831,0-21.457,9.625-21.457,21.457  c0,11.831,9.626,21.457,21.457,21.457s21.457-9.626,21.457-21.457c0-4.797-1.582-9.229-4.251-12.807  c6.475-2.201,14.793-2.377,25.42-2.278c-3.839,3.879-6.215,9.209-6.215,15.085c0,11.831,9.625,21.457,21.457,21.457  c11.831,0,21.456-9.626,21.456-21.457C135.965,96.725,128.31,87.936,118.263,86.155z M71.348,107.276  c0,8.109-6.597,14.707-14.706,14.707c-8.109,0-14.707-6.598-14.707-14.707s6.597-14.707,14.707-14.707  c1.857,0,3.634,0.35,5.271,0.98c-3.603,3.151-6.438,7.328-8.636,12.686l6.246,2.562c2.111-5.146,4.801-8.715,8.185-11.191  C69.972,100.194,71.348,103.576,71.348,107.276z M114.509,121.983c-8.109,0-14.707-6.598-14.707-14.707  c0-7.042,4.977-12.941,11.596-14.373c-0.067,4.268-0.124,8.949-0.124,14.134c0,1.864,1.511,3.376,3.375,3.376  s3.375-1.512,3.375-3.376c0-5.13,0.057-9.774,0.124-14.011c6.354,1.623,11.067,7.396,11.067,14.25  C129.215,115.385,122.618,121.983,114.509,121.983z"/>
    <text x="0" y="296.129" fill="#000000" font-size="5px" font-weight="bold" font-family="'Helvetica Neue', Helvetica, Arial-Unicode, Arial, Sans-serif">Created by corpus delicti</text>
    <text x="0" y="301.129" fill="#000000" font-size="5px" font-weight="bold" font-family="'Helvetica Neue', Helvetica, Arial-Unicode, Arial, Sans-serif">from the Noun Project</text>
</svg>